# xmcd
#
# Track frame offsets:
#	150
#	17585
#	31530
#	54130
#	68165
#	85792
#	88220
#	105000
#	118620
#	131830
#	149665
#	166507
#	183352
#	197722
#	212250
#	223425
#	242992
#	264497
#
# Disc length: 3678 seconds
#
# Revision: 1
# Processed by: cddbd v1.5.2PL0 Copyright (c) Steve Scherf et al.
# Submitted via: audiograbber 1.83.01
#
DISCID=f20e5c12
DTITLE=ME TOUS HXOUS TOU ORFEA - NIKOS DELHS [2000] CD 3 - GW STA 3ENA PERPATOU
DTITLE=SA - THRAKIS, MIKRAS ASIAS, AIGAIOU
DYEAR=1900
DGENRE=
TTITLE0=Dw sta lianoxortaroudia
TTITLE1=S' afto t' alwni to fardy
TTITLE2='gw sta 3ena perpatousa
TTITLE3=Tou krimatism;enou
TTITLE4=Exe geia Panagia
TTITLE5=Zwnaradikos me toumpelekia
TTITLE6=vasilikouda (meta3ades)
TTITLE7=T' ayga den t' alwnizoun
TTITLE8=Roum touroutroum
TTITLE9=Stergious peismanipsi
TTITLE10=Me gelasan ta poulia
TTITLE11=Mantilatos
TTITLE12=Katw sto gialo (Kaneloriza)
TTITLE13=Ena karavi apo th Xio
TTITLE14=Th 8alassa th galanh
TTITLE15=Barys karsilamas Mytilinis
TTITLE16=Den ein avgh na sikw8w
TTITLE17=Aytosxediasmos me kanonaki
EXTD=
EXTT0=
EXTT1=
EXTT2=
EXTT3=
EXTT4=
EXTT5=
EXTT6=
EXTT7=
EXTT8=
EXTT9=
EXTT10=
EXTT11=
EXTT12=
EXTT13=
EXTT14=
EXTT15=
EXTT16=
EXTT17=
PLAYORDER=
